<?xml version="1.0" encoding="UTF-8"?>
<svg version="1.1" xmlns="http://www.w3.org/2000/svg" width="118" height="67">
<path d="M0 0 C1.32 0 2.64 0 4 0 C5.75 2.5 5.75 2.5 7 5 C8.11375 4.319375 9.2275 3.63875 10.375 2.9375 C12.2734375 1.77734375 12.2734375 1.77734375 14 1 C16 2 16 2 17.125 5.0625 C17.41375 6.031875 17.7025 7.00125 18 8 C20.31 7.01 22.62 6.02 25 5 C27 10.625 27 10.625 27 14 C29.64 13.34 32.28 12.68 35 12 C35.95024979 15.69541586 35.95024979 18.30458414 35 22 C37.64 22 40.28 22 43 22 C42.67 24.97 42.34 27.94 42 31 C43.98 31.66 45.96 32.32 48 33 C48 37 48 37 46 39.25 C45.34 39.8275 44.68 40.405 44 41 C44.825 41.5775 45.65 42.155 46.5 42.75 C47.325 43.4925 48.15 44.235 49 45 C49 46.32 49 47.64 49 49 C46.5 50.75 46.5 50.75 44 52 C44.495 54.475 44.495 54.475 45 57 C45.66 57 46.32 57 47 57 C47 58.32 47 59.64 47 61 C43.89704677 61.77573831 41.05538379 62.04694293 37.875 62 C34.08564502 61.79576957 34.08564502 61.79576957 31 63 C31.66 63.33 32.32 63.66 33 64 C33 64.99 33 65.98 33 67 C30.93757383 67.02717692 28.87504297 67.0464758 26.8125 67.0625 C25.66394531 67.07410156 24.51539062 67.08570312 23.33203125 67.09765625 C20 67 20 67 17.26171875 66.43359375 C14.84650124 65.77939333 14.84650124 65.77939333 12 67 C9.24274311 67.10902956 6.5115244 67.164041 3.75390625 67.16796875 C2.94638412 67.17129715 2.138862 67.17462555 1.30686951 67.17805481 C-0.40031363 67.18311513 -2.10750664 67.18546341 -3.81469727 67.18530273 C-6.42415685 67.18748882 -9.03319335 67.20565262 -11.64257812 67.22460938 C-13.30208189 67.22754357 -14.96158766 67.22952819 -16.62109375 67.23046875 C-17.40036728 67.23765427 -18.17964081 67.24483978 -18.98252869 67.25224304 C-22.80016055 67.23617063 -25.76564745 67.15926595 -29 65 C-28.67 63.35 -28.34 61.7 -28 60 C-26.02 59.505 -26.02 59.505 -24 59 C-25.32 59 -26.64 59 -28 59 C-28.46019531 59.49113281 -28.92039062 59.98226562 -29.39453125 60.48828125 C-31 62 -31 62 -33.69921875 62.29296875 C-34.68535156 62.25816406 -35.67148437 62.22335938 -36.6875 62.1875 C-37.68136719 62.16042969 -38.67523438 62.13335937 -39.69921875 62.10546875 C-40.45847656 62.07066406 -41.21773437 62.03585938 -42 62 C-42.33 60.68 -42.66 59.36 -43 58 C-42.01 57.505 -42.01 57.505 -41 57 C-39.86649466 54.98330173 -39.86649466 54.98330173 -39 53 C-40.98 51.68 -42.96 50.36 -45 49 C-44.45773019 45.20411134 -42.79872437 43.52788007 -40 41 C-40.99 40.38125 -40.99 40.38125 -42 39.75 C-42.66 39.1725 -43.32 38.595 -44 38 C-44 36.68 -44 35.36 -44 34 C-41.69 32.68 -39.38 31.36 -37 30 C-37.515625 29.236875 -38.03125 28.47375 -38.5625 27.6875 C-39.036875 26.800625 -39.51125 25.91375 -40 25 C-39.67 24.01 -39.34 23.02 -39 22 C-36.36 22 -33.72 22 -31 22 C-31.66 19.03 -32.32 16.06 -33 13 C-29.7 13.33 -26.4 13.66 -23 14 C-23 11.36 -23 8.72 -23 6 C-19.44219804 6.60990891 -16.3171411 7.5783681 -13 9 C-12.67 6.69 -12.34 4.38 -12 2 C-10.68 2 -9.36 2 -8 2 C-8 2.66 -8 3.32 -8 4 C-5.525 4.495 -5.525 4.495 -3 5 C-2.38125 3.7625 -2.38125 3.7625 -1.75 2.5 C-0.88375 1.2625 -0.88375 1.2625 0 0 Z M-19 19 C-18.34 19.66 -17.68 20.32 -17 21 C-17 20.34 -17 19.68 -17 19 C-17.66 19 -18.32 19 -19 19 Z M9 53 C8.49985047 55.54258463 8.49985047 55.54258463 9 58 C9.66 58.66 10.32 59.32 11 60 C14.01305957 59.61121812 15.39685311 58.73543126 18 57 C17.01 54.69 16.02 52.38 15 50 C12.1176825 50 11.04424538 51.02389614 9 53 Z M-13 54 C-13.99 55.485 -13.99 55.485 -15 57 C-13.87465895 58.35618499 -13.87465895 58.35618499 -10.9375 58.0625 C-9.968125 58.041875 -8.99875 58.02125 -8 58 C-8 56.68 -8 55.36 -8 54 C-10.41619823 53.74969023 -10.41619823 53.74969023 -13 54 Z " fill="#EDEDED" transform="translate(57,0)"/>
<path d="M0 0 C1.32 0 2.64 0 4 0 C4 0.66 4 1.32 4 2 C5.2065625 2.3403125 5.2065625 2.3403125 6.4375 2.6875 C7.7059375 3.3371875 7.7059375 3.3371875 9 4 C9.35919668 5.66128463 9.68911632 7.32900023 10 9 C10.825 9.825 11.65 10.65 12.5 11.5 C15.14439401 14.14439401 15.68772537 15.35679601 16 19 C17.32 18.34 18.64 17.68 20 17 C20 17.66 20 18.32 20 19 C20.66 19.33 21.32 19.66 22 20 C21.505 16.535 21.505 16.535 21 13 C20.34 13 19.68 13 19 13 C19.33 12.01 19.66 11.02 20 10 C22.33881007 12.12619097 23.94038762 13.99776492 25 17 C24.625 19.75 24.625 19.75 24 22 C23.01 22 22.02 22 21 22 C20.34 22.66 19.68 23.32 19 24 C18.505 23.01 18.505 23.01 18 22 C17.34 22.99 16.68 23.98 16 25 C16.495 25.99 16.495 25.99 17 27 C16.67 27.66 16.34 28.32 16 29 C15.34 29 14.68 29 14 29 C14.20625 29.598125 14.4125 30.19625 14.625 30.8125 C15 33 15 33 13 36 C11 34 11 34 10.83984375 31.5390625 C10.87207031 30.57742187 10.90429688 29.61578125 10.9375 28.625 C11.04393358 25.19136027 11.00777186 22.29674206 10 19 C9.34 19 8.68 19 8 19 C6.9673198 16.21176345 6.95490707 15.1322726 7.9375 12.25 C8.4634375 11.13625 8.4634375 11.13625 9 10 C8.34 10 7.68 10 7 10 C6.67 11.65 6.34 13.3 6 15 C5.34 14.34 4.68 13.68 4 13 C3.566875 14.2065625 3.566875 14.2065625 3.125 15.4375 C2 18 2 18 0 19 C0.495 19.99 0.495 19.99 1 21 C0.34 21 -0.32 21 -1 21 C-0.505 23.475 -0.505 23.475 0 26 C0.45375 24.88625 0.9075 23.7725 1.375 22.625 C3 19 3 19 5 17 C5 17.66 5 18.32 5 19 C6.32 19.66 7.64 20.32 9 21 C8.64766839 26.4611399 8.64766839 26.4611399 8 29 C5.9375 30.5 5.9375 30.5 4 31 C4.495 33.475 4.495 33.475 5 36 C3.02 35.34 1.04 34.68 -1 34 C-1 34.66 -1 35.32 -1 36 C-0.34 36 0.32 36 1 36 C2.625 38.5 2.625 38.5 4 41 C3.01 41.33 2.02 41.66 1 42 C0.67 41.67 0.34 41.34 0 41 C-0.495 41.99 -0.495 41.99 -1 43 C-1.66 43 -2.32 43 -3 43 C-3.99 40.69 -4.98 38.38 -6 36 C-4.02 35.505 -4.02 35.505 -2 35 C-2 34.34 -2 33.68 -2 33 C-2.61875 33.309375 -3.2375 33.61875 -3.875 33.9375 C-5.25 34.625 -6.625 35.3125 -8 36 C-6.68 37.98 -5.36 39.96 -4 42 C-4.66 42 -5.32 42 -6 42 C-5.34 42.99 -4.68 43.98 -4 45 C-3.875 48.1875 -3.875 48.1875 -4 51 C-3.67 50.67 -3.34 50.34 -3 50 C-0.32941149 49.85884839 2.32432238 49.95752893 5 50 C4 52 4 52 0.9375 53.125 C-0.031875 53.41375 -1.00125 53.7025 -2 54 C-2 54.33 -2 54.66 -2 55 C-0.35 55.33 1.3 55.66 3 56 C1.02 56.495 1.02 56.495 -1 57 C-1 57.66 -1 58.32 -1 59 C-2.98 59.495 -2.98 59.495 -5 60 C-5 60.66 -5 61.32 -5 62 C-9.41225737 63.47075246 -12.48281619 64.36884358 -17 63 C-16.67 61.35 -16.34 59.7 -16 58 C-14.02 57.505 -14.02 57.505 -12 57 C-13.32 57 -14.64 57 -16 57 C-16.46019531 57.49113281 -16.92039062 57.98226562 -17.39453125 58.48828125 C-19 60 -19 60 -21.69921875 60.29296875 C-22.68535156 60.25816406 -23.67148437 60.22335938 -24.6875 60.1875 C-25.68136719 60.16042969 -26.67523438 60.13335937 -27.69921875 60.10546875 C-28.45847656 60.07066406 -29.21773437 60.03585938 -30 60 C-30.33 58.68 -30.66 57.36 -31 56 C-30.01 55.505 -30.01 55.505 -29 55 C-27.86649466 52.98330173 -27.86649466 52.98330173 -27 51 C-28.98 49.68 -30.96 48.36 -33 47 C-32.45773019 43.20411134 -30.79872437 41.52788007 -28 39 C-28.99 38.38125 -28.99 38.38125 -30 37.75 C-30.66 37.1725 -31.32 36.595 -32 36 C-32 34.68 -32 33.36 -32 32 C-29.69 30.68 -27.38 29.36 -25 28 C-25.515625 27.236875 -26.03125 26.47375 -26.5625 25.6875 C-27.036875 24.800625 -27.51125 23.91375 -28 23 C-27.67 22.01 -27.34 21.02 -27 20 C-24.36 20 -21.72 20 -19 20 C-19.66 17.03 -20.32 14.06 -21 11 C-17.7 11.33 -14.4 11.66 -11 12 C-11 9.36 -11 6.72 -11 4 C-7.44219804 4.60990891 -4.3171411 5.5783681 -1 7 C-0.67 4.69 -0.34 2.38 0 0 Z M-7 17 C-6.34 17.66 -5.68 18.32 -5 19 C-5 18.34 -5 17.68 -5 17 C-5.66 17 -6.32 17 -7 17 Z " fill="#D6D6D6" transform="translate(45,2)"/>
<path d="M0 0 C1.10844919 3.32534757 0.84454356 5.62182575 0 9 C2.64 9 5.28 9 8 9 C7.67 11.97 7.34 14.94 7 18 C8.98 18.66 10.96 19.32 13 20 C13 24 13 24 11 26.25 C10.34 26.8275 9.68 27.405 9 28 C9.825 28.5775 10.65 29.155 11.5 29.75 C12.325 30.4925 13.15 31.235 14 32 C14 33.32 14 34.64 14 36 C11.5 37.75 11.5 37.75 9 39 C9.495 41.475 9.495 41.475 10 44 C10.66 44 11.32 44 12 44 C12 45.32 12 46.64 12 48 C8.89704677 48.77573831 6.05538379 49.04694293 2.875 49 C-0.91435498 48.79576957 -0.91435498 48.79576957 -4 50 C-3.01 50.495 -3.01 50.495 -2 51 C-2 51.99 -2 52.98 -2 54 C-4.06242617 54.02717692 -6.12495703 54.0464758 -8.1875 54.0625 C-9.33605469 54.07410156 -10.48460937 54.08570313 -11.66796875 54.09765625 C-15 54 -15 54 -17.73828125 53.43359375 C-20.15349876 52.77939333 -20.15349876 52.77939333 -23 54 C-24.62719482 54.08143855 -26.25751719 54.1075302 -27.88671875 54.09765625 C-28.82451172 54.09443359 -29.76230469 54.09121094 -30.72851562 54.08789062 C-32.19321289 54.07532227 -32.19321289 54.07532227 -33.6875 54.0625 C-35.16959961 54.05573242 -35.16959961 54.05573242 -36.68164062 54.04882812 C-39.12115474 54.03704303 -41.56054689 54.02059011 -44 54 C-42.62768555 52.4909668 -42.62768555 52.4909668 -41 51 C-38.15124622 51.20153707 -35.74900747 52.14375177 -33 53 C-33 52.34 -33 51.68 -33 51 C-30.36 51.66 -27.72 52.32 -25 53 C-25 52.34 -25 51.68 -25 51 C-25.66 50.67 -26.32 50.34 -27 50 C-24.69 50 -22.38 50 -20 50 C-20 49.34 -20 48.68 -20 48 C-19.34 48 -18.68 48 -18 48 C-18.47196711 45.10077345 -18.94441779 42.23344526 -19.625 39.375 C-20.04031139 36.74469455 -20.23113603 35.38019633 -19 33 C-17.02253397 32.26919734 -15.01927511 31.60578253 -13 31 C-12.505 30.46375 -12.01 29.9275 -11.5 29.375 C-10 28 -10 28 -6.8125 27.8125 C-5.4203125 27.9053125 -5.4203125 27.9053125 -4 28 C-4 27.67 -4 27.34 -4 27 C-4.99 27 -5.98 27 -7 27 C-6.505 25.515 -6.505 25.515 -6 24 C-7.37168238 21.80961577 -7.37168238 21.80961577 -9 20 C-8.01 19.34 -7.02 18.68 -6 18 C-8.31 18.66 -10.62 19.32 -13 20 C-13 20.66 -13 21.32 -13 22 C-13.99 22 -14.98 22 -16 22 C-15.34 20.35 -14.68 18.7 -14 17 C-12.68 17 -11.36 17 -10 17 C-11.32 16.34 -12.64 15.68 -14 15 C-13.34 13.02 -12.68 11.04 -12 9 C-10.329375 9.061875 -10.329375 9.061875 -8.625 9.125 C-4.95633975 9.41121859 -4.95633975 9.41121859 -3 7 C-2.30899447 5.00827818 -1.64097297 3.00838196 -1 1 C-0.67 0.67 -0.34 0.34 0 0 Z " fill="#E2E2E2" transform="translate(92,13)"/>
<path d="M0 0 C3.465 1.485 3.465 1.485 7 3 C6.67 4.65 6.34 6.3 6 8 C7.32 8 8.64 8 10 8 C10.66 6.68 11.32 5.36 12 4 C13.98 6.97 13.98 6.97 16 10 C15.34 10 14.68 10 14 10 C14.99 11.485 14.99 11.485 16 13 C16.125 16.1875 16.125 16.1875 16 19 C16.33 18.67 16.66 18.34 17 18 C19.67058851 17.85884839 22.32432238 17.95752893 25 18 C24 20 24 20 20.9375 21.125 C19.968125 21.41375 18.99875 21.7025 18 22 C18 22.33 18 22.66 18 23 C19.65 23.33 21.3 23.66 23 24 C21.68 24.33 20.36 24.66 19 25 C19 25.66 19 26.32 19 27 C17.68 27.33 16.36 27.66 15 28 C15 28.66 15 29.32 15 30 C10.58774263 31.47075246 7.51718381 32.36884358 3 31 C3.33 29.35 3.66 27.7 4 26 C5.32 25.67 6.64 25.34 8 25 C6.68 25 5.36 25 4 25 C3.53980469 25.49113281 3.07960938 25.98226562 2.60546875 26.48828125 C1 28 1 28 -1.69921875 28.29296875 C-2.68535156 28.25816406 -3.67148437 28.22335938 -4.6875 28.1875 C-6.17830078 28.14689453 -6.17830078 28.14689453 -7.69921875 28.10546875 C-8.45847656 28.07066406 -9.21773437 28.03585938 -10 28 C-10.33 26.68 -10.66 25.36 -11 24 C-10.34 23.67 -9.68 23.34 -9 23 C-7.86649466 20.98330173 -7.86649466 20.98330173 -7 19 C-8.98 17.68 -10.96 16.36 -13 15 C-12.45773019 11.20411134 -10.79872437 9.52788007 -8 7 C-8.99 6.319375 -8.99 6.319375 -10 5.625 C-10.66 5.08875 -11.32 4.5525 -12 4 C-12 3.34 -12 2.68 -12 2 C-8.125 3.875 -8.125 3.875 -7 5 C-5.33382885 5.04063832 -3.66611905 5.042721 -2 5 C-1.34 3.35 -0.68 1.7 0 0 Z " fill="#BBBBBB" transform="translate(25,34)"/>
<path d="M0 0 C1.10844919 3.32534757 0.84454356 5.62182575 0 9 C2.64 9 5.28 9 8 9 C7.67 11.97 7.34 14.94 7 18 C8.98 18.66 10.96 19.32 13 20 C13 24 13 24 10.9375 26.6875 C7.47323577 29.41468673 5.33985319 29.68437431 1 30 C-1.79021926 30.47049788 -1.79021926 30.47049788 -4 32 C-4.33 32.66 -4.66 33.32 -5 34 C-6.2065625 33.7215625 -6.2065625 33.7215625 -7.4375 33.4375 C-8.283125 33.293125 -9.12875 33.14875 -10 33 C-10.495 33.495 -10.495 33.495 -11 34 C-10.01 34.33 -9.02 34.66 -8 35 C-8 35.66 -8 36.32 -8 37 C-8.99 37.99 -9.98 38.98 -11 40 C-8.03 40.33 -5.06 40.66 -2 41 C-2.33 41.66 -2.66 42.32 -3 43 C-4.77049689 43.05410687 -6.54146849 43.09284119 -8.3125 43.125 C-9.79169922 43.15980469 -9.79169922 43.15980469 -11.30078125 43.1953125 C-14 43 -14 43 -17 41 C-17.99 41.495 -17.99 41.495 -19 42 C-20.51685393 35.93258427 -20.51685393 35.93258427 -19 33 C-17.02253397 32.26919734 -15.01927511 31.60578253 -13 31 C-12.505 30.46375 -12.01 29.9275 -11.5 29.375 C-10 28 -10 28 -6.8125 27.8125 C-5.4203125 27.9053125 -5.4203125 27.9053125 -4 28 C-4 27.67 -4 27.34 -4 27 C-4.99 27 -5.98 27 -7 27 C-6.67 26.01 -6.34 25.02 -6 24 C-7.37168238 21.80961577 -7.37168238 21.80961577 -9 20 C-8.01 19.34 -7.02 18.68 -6 18 C-8.31 18.66 -10.62 19.32 -13 20 C-13 20.66 -13 21.32 -13 22 C-13.99 22 -14.98 22 -16 22 C-15.34 20.35 -14.68 18.7 -14 17 C-12.68 17 -11.36 17 -10 17 C-11.32 16.34 -12.64 15.68 -14 15 C-13.34 13.02 -12.68 11.04 -12 9 C-10.329375 9.061875 -10.329375 9.061875 -8.625 9.125 C-4.95633975 9.41121859 -4.95633975 9.41121859 -3 7 C-2.30899447 5.00827818 -1.64097297 3.00838196 -1 1 C-0.67 0.67 -0.34 0.34 0 0 Z " fill="#919191" transform="translate(92,13)"/>
<path d="M0 0 C1.32 0 2.64 0 4 0 C4 0.66 4 1.32 4 2 C5.2065625 2.3403125 5.2065625 2.3403125 6.4375 2.6875 C7.283125 3.120625 8.12875 3.55375 9 4 C9.35919668 5.66128463 9.68911632 7.32900023 10 9 C10.825 9.825 11.65 10.65 12.5 11.5 C15.14439401 14.14439401 15.68772537 15.35679601 16 19 C17.32 18.34 18.64 17.68 20 17 C20 17.66 20 18.32 20 19 C20.66 19.33 21.32 19.66 22 20 C21.505 16.535 21.505 16.535 21 13 C20.34 13 19.68 13 19 13 C19.33 12.01 19.66 11.02 20 10 C22.33881007 12.12619097 23.94038762 13.99776492 25 17 C24.625 19.75 24.625 19.75 24 22 C23.01 22 22.02 22 21 22 C20.34 22.66 19.68 23.32 19 24 C18.67 23.34 18.34 22.68 18 22 C17.34 22.99 16.68 23.98 16 25 C16.33 25.66 16.66 26.32 17 27 C16.67 27.66 16.34 28.32 16 29 C15.34 29 14.68 29 14 29 C14.20625 29.598125 14.4125 30.19625 14.625 30.8125 C15 33 15 33 13 36 C11 34 11 34 10.83984375 31.5390625 C10.87207031 30.57742187 10.90429688 29.61578125 10.9375 28.625 C11.04393358 25.19136027 11.00777186 22.29674206 10 19 C9.34 19 8.68 19 8 19 C6.9673198 16.21176345 6.95490707 15.1322726 7.9375 12.25 C8.4634375 11.13625 8.4634375 11.13625 9 10 C8.34 10 7.68 10 7 10 C6.67 11.65 6.34 13.3 6 15 C5.34 14.34 4.68 13.68 4 13 C3.566875 14.2065625 3.566875 14.2065625 3.125 15.4375 C2 18 2 18 0 19 C0.33 19.66 0.66 20.32 1 21 C0.34 21 -0.32 21 -1 21 C-1 22.65 -1 24.3 -1 26 C-1.66 26 -2.32 26 -3 26 C-3.33 25.34 -3.66 24.68 -4 24 C-4.804375 23.690625 -5.60875 23.38125 -6.4375 23.0625 C-9 22 -9 22 -11 19 C-11 17.33333333 -11 15.66666667 -11 14 C-11.66 13.34 -12.32 12.68 -13 12 C-12.34 12 -11.68 12 -11 12 C-11 9.36 -11 6.72 -11 4 C-7.44219804 4.60990891 -4.3171411 5.5783681 -1 7 C-0.67 4.69 -0.34 2.38 0 0 Z M-7 17 C-6.34 17.66 -5.68 18.32 -5 19 C-5 18.34 -5 17.68 -5 17 C-5.66 17 -6.32 17 -7 17 Z " fill="#D6D6D6" transform="translate(45,2)"/>
<path d="M0 0 C3.63 1.98 7.26 3.96 11 6 C11 5.34 11 4.68 11 4 C10.34 3.67 9.68 3.34 9 3 C10.32 3.33 11.64 3.66 13 4 C13.33 3.34 13.66 2.68 14 2 C14.99 2 15.98 2 17 2 C17.495 2.99 17.495 2.99 18 4 C21.3 4 24.6 4 28 4 C28 3.34 28 2.68 28 2 C28.66 2 29.32 2 30 2 C30 3.32 30 4.64 30 6 C26.89704677 6.77573831 24.05538379 7.04694293 20.875 7 C17.08564502 6.79576957 17.08564502 6.79576957 14 8 C14.66 8.33 15.32 8.66 16 9 C16 9.99 16 10.98 16 12 C13.93757383 12.02717692 11.87504297 12.0464758 9.8125 12.0625 C8.66394531 12.07410156 7.51539063 12.08570312 6.33203125 12.09765625 C3 12 3 12 0.26171875 11.43359375 C-2.15349876 10.77939333 -2.15349876 10.77939333 -5 12 C-6.62719482 12.08143855 -8.25751719 12.1075302 -9.88671875 12.09765625 C-10.82451172 12.09443359 -11.76230469 12.09121094 -12.72851562 12.08789062 C-13.70498047 12.07951172 -14.68144531 12.07113281 -15.6875 12.0625 C-17.16959961 12.05573242 -17.16959961 12.05573242 -18.68164062 12.04882812 C-21.12115474 12.03704303 -23.56054689 12.02059011 -26 12 C-24.62768555 10.4909668 -24.62768555 10.4909668 -23 9 C-20.15124622 9.20153707 -17.74900747 10.14375177 -15 11 C-15 10.34 -15 9.68 -15 9 C-12.36 9.66 -9.72 10.32 -7 11 C-7 10.34 -7 9.68 -7 9 C-7.66 8.67 -8.32 8.34 -9 8 C-6.69 8 -4.38 8 -2 8 C-2 7.34 -2 6.68 -2 6 C-1.34 6 -0.68 6 0 6 C0 4.02 0 2.04 0 0 Z " fill="#CACACA" transform="translate(74,55)"/>
<path d="M0 0 C0.66 0 1.32 0 2 0 C2.66 1.98 3.32 3.96 4 6 C6.31 5.01 8.62 4.02 11 3 C12.62298792 7.10520474 13.37979067 9.74564545 12 14 C11.01 15.485 11.01 15.485 10 17 C9.34 17 8.68 17 8 17 C8 18.32 8 19.64 8 21 C7.265625 23.54296875 7.265625 23.54296875 6.25 26.1875 C5.92515625 27.06792969 5.6003125 27.94835937 5.265625 28.85546875 C4 31 4 31 1.859375 31.80078125 C0.93898438 31.89939453 0.93898438 31.89939453 0 32 C-0.625 29.625 -0.625 29.625 -1 27 C-0.34 26.34 0.32 25.68 1 25 C1 24.030625 1 23.06125 1 22.0625 C1 19 1 19 3 16 C2.34 15.34 1.68 14.68 1 14 C0.34 14.66 -0.32 15.32 -1 16 C-1.33 14.35 -1.66 12.7 -2 11 C-1.34 10.67 -0.68 10.34 0 10 C0 9.0925 0 8.185 0 7.25 C0 4.83333333 0 2.41666667 0 0 Z " fill="#9D9D9D" transform="translate(71,2)"/>
<path d="M0 0 C1.258125 0.12375 2.51625 0.2475 3.8125 0.375 C4.87404297 0.47941406 4.87404297 0.47941406 5.95703125 0.5859375 C8 1 8 1 11 3 C11.1875 6.125 11.1875 6.125 11 9 C11.99 9.33 12.98 9.66 14 10 C15.6875 11.5625 15.6875 11.5625 17 13 C17.33 12.34 17.66 11.68 18 11 C18 12.32 18 13.64 18 15 C18.66 15.33 19.32 15.66 20 16 C15.48521602 15.46884894 12.65333143 13.63379708 9 11 C9.33 12.32 9.66 13.64 10 15 C9.34 15 8.68 15 8 15 C8 15.66 8 16.32 8 17 C0.08330275 18.58678899 0.08330275 18.58678899 -4 16.375 C-6.15501057 13.81592495 -6.72518769 12.29774776 -7 9 C-4.03 9 -1.06 9 2 9 C1.34 6.03 0.68 3.06 0 0 Z " fill="#E6E6E6" transform="translate(24,13)"/>
<path d="M0 0 C0.99 0.33 1.98 0.66 3 1 C3.061875 1.721875 3.12375 2.44375 3.1875 3.1875 C3.81853149 6.22109595 3.81853149 6.22109595 6.5 8.5 C9.14439401 11.14439401 9.68772537 12.35679601 10 16 C11.32 15.34 12.64 14.68 14 14 C14 14.66 14 15.32 14 16 C14.66 16.33 15.32 16.66 16 17 C15.67 14.69 15.34 12.38 15 10 C14.34 10 13.68 10 13 10 C13.33 9.01 13.66 8.02 14 7 C16.33881007 9.12619097 17.94038762 10.99776492 19 14 C18.625 16.75 18.625 16.75 18 19 C17.01 19 16.02 19 15 19 C14.34 19.66 13.68 20.32 13 21 C12.67 20.34 12.34 19.68 12 19 C11.34 19.99 10.68 20.98 10 22 C10.33 22.66 10.66 23.32 11 24 C10.67 24.66 10.34 25.32 10 26 C9.34 26 8.68 26 8 26 C8.20625 26.598125 8.4125 27.19625 8.625 27.8125 C9 30 9 30 7 33 C5 31 5 31 4.83984375 28.5390625 C4.87207031 27.57742187 4.90429688 26.61578125 4.9375 25.625 C5.04393358 22.19136027 5.00777186 19.29674206 4 16 C3.34 16 2.68 16 2 16 C0.9673198 13.21176345 0.95490707 12.1322726 1.9375 9.25 C2.288125 8.5075 2.63875 7.765 3 7 C2.34 7 1.68 7 1 7 C0.67 4.69 0.34 2.38 0 0 Z " fill="#EAEAEA" transform="translate(51,5)"/>
<path d="M0 0 C1.10844919 3.32534757 0.84454356 5.62182575 0 9 C2.31 9 4.62 9 7 9 C3.89101172 16.62483717 3.89101172 16.62483717 0.625 18 C-1.25011574 18 -3.12529106 17.97655644 -5 17.9375 C-8.14568493 18.0030351 -10.17561199 18.67087623 -13 20 C-13 20.66 -13 21.32 -13 22 C-13.99 22 -14.98 22 -16 22 C-15.34 20.35 -14.68 18.7 -14 17 C-12.68 17 -11.36 17 -10 17 C-11.32 16.34 -12.64 15.68 -14 15 C-13.34 13.02 -12.68 11.04 -12 9 C-10.329375 9.061875 -10.329375 9.061875 -8.625 9.125 C-4.95633975 9.41121859 -4.95633975 9.41121859 -3 7 C-2.30899447 5.00827818 -1.64097297 3.00838196 -1 1 C-0.67 0.67 -0.34 0.34 0 0 Z " fill="#ACACAC" transform="translate(92,13)"/>
<path d="M0 0 C0 3.74161103 -0.51338171 7.28953557 -1 11 C3.95 11 8.9 11 14 11 C10.68576864 15.48396007 8.66103175 17.79552516 3 19 C1.68 19 0.36 19 -1 19 C-1 18.34 -1 17.68 -1 17 C-0.01 16.34 0.98 15.68 2 15 C0.68 15.33 -0.64 15.66 -2 16 C-2.1546875 16.9590625 -2.1546875 16.9590625 -2.3125 17.9375 C-2.539375 18.618125 -2.76625 19.29875 -3 20 C-3.99 20.33 -4.98 20.66 -6 21 C-6 19.02 -6 17.04 -6 15 C-6.99 15 -7.98 15 -9 15 C-7.00437637 3.70897155 -7.00437637 3.70897155 -2.8125 0.75 C-1.884375 0.5025 -0.95625 0.255 0 0 Z " fill="#878787" transform="translate(70,25)"/>
<path d="M0 0 C0 4.18016742 -0.84899294 7.67191493 -3.625 10.875 C-4.07875 11.24625 -4.5325 11.6175 -5 12 C-5 11.34 -5 10.68 -5 10 C-7.40877257 10.11341534 -7.40877257 10.11341534 -10 11 C-11.84434349 13.46115547 -11.84434349 13.46115547 -13 16 C-11.68 16 -10.36 16 -9 16 C-9 16.66 -9 17.32 -9 18 C-9.928125 18.12375 -9.928125 18.12375 -10.875 18.25 C-13.18437567 18.81258459 -13.18437567 18.81258459 -14.25 21.0625 C-14.62125 22.0215625 -14.62125 22.0215625 -15 23 C-13.9275 22.34 -12.855 21.68 -11.75 21 C-8.69019314 19.11704193 -7.8664136 19 -4 19 C-7 21 -7 21 -9 21 C-9.33 21.99 -9.66 22.98 -10 24 C-16.435 24.495 -16.435 24.495 -23 25 C-22.50769231 16.50769231 -22.50769231 16.50769231 -19.9375 13.9375 C-19.298125 13.628125 -18.65875 13.31875 -18 13 C-18.350625 13.61875 -18.70125 14.2375 -19.0625 14.875 C-19.371875 15.57625 -19.68125 16.2775 -20 17 C-19.67 17.66 -19.34 18.32 -19 19 C-19.33 19.99 -19.66 20.98 -20 22 C-16.85304578 21.33028462 -16.85304578 21.33028462 -15.796875 18.78515625 C-15.45140625 17.88667969 -15.1059375 16.98820312 -14.75 16.0625 C-14.39421875 15.16660156 -14.0384375 14.27070313 -13.671875 13.34765625 C-12.71545107 11.00572409 -12.71545107 11.00572409 -14 9 C-12.68 8.67 -11.36 8.34 -10 8 C-9.87625 7.38125 -9.7525 6.7625 -9.625 6.125 C-9 4 -9 4 -7 2 C-4.68234271 1.28072705 -2.34904126 0.6090107 0 0 Z " fill="#F5F5F5" transform="translate(91,12)"/>
<path d="M0 0 C1.32 0 2.64 0 4 0 C7.63128044 3.89065762 7.25922921 7.97276146 7.10546875 12.98828125 C7.07066406 13.65214844 7.03585938 14.31601563 7 15 C7.66 15 8.32 15 9 15 C11.125 19.625 11.125 19.625 10 23 C9.01 22.34 8.02 21.68 7 21 C6.01 21 5.02 21 4 21 C3.773125 20.278125 3.54625 19.55625 3.3125 18.8125 C2.1265836 15.81096454 2.1265836 15.81096454 -0.625 13.5625 C-3 11 -3 11 -3.5 8 C-2.93729102 4.62374613 -2.17757426 2.64419731 0 0 Z " fill="#F5F5F5" transform="translate(57,0)"/>
<path d="M0 0 C3.465 1.485 3.465 1.485 7 3 C6.67 4.65 6.34 6.3 6 8 C7.32 8 8.64 8 10 8 C10.66 6.68 11.32 5.36 12 4 C13.98 6.97 13.98 6.97 16 10 C15.34 10 14.68 10 14 10 C14.33 11.98 14.66 13.96 15 16 C13.68 15.34 12.36 14.68 11 14 C11.33 14.99 11.66 15.98 12 17 C11.01 17.99 10.02 18.98 9 20 C8.34 19.67 7.68 19.34 7 19 C7.66 16.36 8.32 13.72 9 11 C8.01 10.34 7.02 9.68 6 9 C6 9.66 6 10.32 6 11 C6.66 11.33 7.32 11.66 8 12 C6.35232753 11.71890887 4.70686855 11.42481474 3.0625 11.125 C2.14597656 10.96257813 1.22945312 10.80015625 0.28515625 10.6328125 C-0.84599609 10.31957031 -0.84599609 10.31957031 -2 10 C-2.33 9.34 -2.66 8.68 -3 8 C-4.99117408 7.30741771 -6.9921136 6.64252365 -9 6 C-9.99 5.34 -10.98 4.68 -12 4 C-12 3.34 -12 2.68 -12 2 C-8.125 3.875 -8.125 3.875 -7 5 C-5.33382885 5.04063832 -3.66611905 5.042721 -2 5 C-1.34 3.35 -0.68 1.7 0 0 Z " fill="#656565" transform="translate(25,34)"/>
<path d="M0 0 C0 0.66 0 1.32 0 2 C1.98 1.67 3.96 1.34 6 1 C7.60355101 4.50776784 8.22036864 7.14354879 8 11 C5.525 10.505 5.525 10.505 3 10 C3 9.01 3 8.02 3 7 C2.01 6.67 1.02 6.34 0 6 C0.66 5.67 1.32 5.34 2 5 C0.68 4.34 -0.64 3.68 -2 3 C-2.391875 3.825 -2.78375 4.65 -3.1875 5.5 C-5 8 -5 8 -7.375 8.5625 C-10.77476436 7.83397907 -12.52658938 6.40274174 -15 4 C-15 3.34 -15 2.68 -15 2 C-9.67993436 -1.41029848 -5.94457613 -1.09644404 0 0 Z " fill="#F5F5F5" transform="translate(28,32)"/>
<path d="M0 0 C1.216875 0.103125 2.43375 0.20625 3.6875 0.3125 C2.6875 2.3125 2.6875 2.3125 -0.375 3.4375 C-1.344375 3.72625 -2.31375 4.015 -3.3125 4.3125 C-3.3125 4.6425 -3.3125 4.9725 -3.3125 5.3125 C-0.8375 5.8075 -0.8375 5.8075 1.6875 6.3125 C0.3675 6.6425 -0.9525 6.9725 -2.3125 7.3125 C-2.3125 7.9725 -2.3125 8.6325 -2.3125 9.3125 C-3.6325 9.6425 -4.9525 9.9725 -6.3125 10.3125 C-6.3125 10.9725 -6.3125 11.6325 -6.3125 12.3125 C-10.72475737 13.78325246 -13.79531619 14.68134358 -18.3125 13.3125 C-18.3125 11 -18.3125 11 -17.3125 8.3125 C-15.37471964 7.35719239 -13.4238484 6.76997034 -11.359375 6.13671875 C-8.99551293 5.35326711 -8.99551293 5.35326711 -6.8125 2.625 C-4.05027764 0.06994432 -3.55920042 -0.01246655 0 0 Z " fill="#CACACA" transform="translate(46.3125,51.6875)"/>
<path d="M0 0 C2.875 0.1875 2.875 0.1875 6 1 C7.375 3.5625 7.375 3.5625 8 6 C8.66 6 9.32 6 10 6 C10 6.66 10 7.32 10 8 C6.7 8.33 3.4 8.66 0 9 C-0.33 8.01 -0.66 7.02 -1 6 C-1.99 6 -2.98 6 -4 6 C-4.33 6.99 -4.66 7.98 -5 9 C-5.66 8.67 -6.32 8.34 -7 8 C-7 8.66 -7 9.32 -7 10 C-11.50802601 8.74194623 -14.4912812 7.09592835 -18 4 C-17.67 3.01 -17.34 2.02 -17 1 C-16.42765625 1.72896484 -16.42765625 1.72896484 -15.84375 2.47265625 C-13.34798778 4.54012029 -11.70692868 4.43318961 -8.5 4.4375 C-7.06140625 4.46650391 -7.06140625 4.46650391 -5.59375 4.49609375 C-2.84753046 4.23981103 -2.84753046 4.23981103 -1.15625 1.97265625 C-0.7746875 1.32167969 -0.393125 0.67070313 0 0 Z " fill="#E9E9E9" transform="translate(92,51)"/>
<path d="M0 0 C3.35111834 2.23407889 4.81553956 3.26215824 5.8125 7.25 C5.874375 8.1575 5.93625 9.065 6 10 C-1.91669725 11.58678899 -1.91669725 11.58678899 -6 9.375 C-8.15501057 6.81592495 -8.72518769 5.29774776 -9 2 C-6.03 2 -3.06 2 0 2 C0 1.34 0 0.68 0 0 Z " fill="#E3E3E3" transform="translate(26,20)"/>
<path d="M0 0 C1.0828125 0.37125 1.0828125 0.37125 2.1875 0.75 C2.1875 1.41 2.1875 2.07 2.1875 2.75 C4.8275 3.08 7.4675 3.41 10.1875 3.75 C10.1875 3.09 10.1875 2.43 10.1875 1.75 C11.5075 2.41 12.8275 3.07 14.1875 3.75 C14.1875 4.41 14.1875 5.07 14.1875 5.75 C13.5275 5.75 12.8675 5.75 12.1875 5.75 C11.8575 6.41 11.5275 7.07 11.1875 7.75 C11.1875 7.09 11.1875 6.43 11.1875 5.75 C10.23875 5.770625 9.29 5.79125 8.3125 5.8125 C5.1875 5.75 5.1875 5.75 3.1875 4.75 C2.5275 6.07 1.8675 7.39 1.1875 8.75 C-2.66895121 8.97036864 -5.30473216 8.35355101 -8.8125 6.75 C-7.34576281 2.34978843 -4.84134327 -0.43034162 0 0 Z " fill="#F2F2F2" transform="translate(20.8125,41.25)"/>
<path d="M0 0 C2.33503308 0.33823341 4.66055928 0.56028135 7.01171875 0.75390625 C9 1 9 1 11 2 C11 1.34 11 0.68 11 0 C11.66 0 12.32 0 13 0 C13 0.99 13 1.98 13 3 C10.93757383 3.02717692 8.87504297 3.0464758 6.8125 3.0625 C5.66394531 3.07410156 4.51539063 3.08570312 3.33203125 3.09765625 C0 3 0 3 -2.73828125 2.43359375 C-5.15349876 1.77939333 -5.15349876 1.77939333 -8 3 C-9.62719482 3.08143855 -11.25751719 3.1075302 -12.88671875 3.09765625 C-13.82451172 3.09443359 -14.76230469 3.09121094 -15.72851562 3.08789062 C-16.70498047 3.07951172 -17.68144531 3.07113281 -18.6875 3.0625 C-20.16959961 3.05573242 -20.16959961 3.05573242 -21.68164062 3.04882812 C-24.12115474 3.03704303 -26.56054689 3.02059011 -29 3 C-27.62768555 1.4909668 -27.62768555 1.4909668 -26 0 C-23.15124622 0.20153707 -20.74900747 1.14375177 -18 2 C-18 1.34 -18 0.68 -18 0 C-15.36 0.66 -12.72 1.32 -10 2 C-10 1.34 -10 0.68 -10 0 C-10.66 -0.33 -11.32 -0.66 -12 -1 C-7.0938635 -1.96198755 -4.5300296 -1.94144126 0 0 Z " fill="#020202" transform="translate(77,64)"/>
<path d="M0 0 C3.3 1.98 6.6 3.96 10 6 C9.67 6.66 9.34 7.32 9 8 C6.525 7.505 6.525 7.505 4 7 C4.57452746 10.93075644 4.57452746 10.93075644 7 14 C5.68 14.33 4.36 14.66 3 15 C2.67 13.35 2.34 11.7 2 10 C1.01 10.33 0.02 10.66 -1 11 C-1.33 10.67 -1.66 10.34 -2 10 C-2.99 10.495 -2.99 10.495 -4 11 C-4 10.34 -4 9.68 -4 9 C-4.86625 9.3403125 -4.86625 9.3403125 -5.75 9.6875 C-8 10 -8 10 -10.25 8.5625 C-10.8275 8.046875 -11.405 7.53125 -12 7 C-11.67 6.34 -11.34 5.68 -11 5 C-10.34 5.66 -9.68 6.32 -9 7 C-6.78927023 7.24253813 -6.78927023 7.24253813 -4.375 7.125 C-3.55773438 7.10695313 -2.74046875 7.08890625 -1.8984375 7.0703125 C-1.27195312 7.04710937 -0.64546875 7.02390625 0 7 C0 6.34 0 5.68 0 5 C0.66 5 1.32 5 2 5 C1.34 3.35 0.68 1.7 0 0 Z " fill="#9E9E9E" transform="translate(32,23)"/>
<path d="M0 0 C0 6 0 6 -1 9 C-0.01 8.67 0.98 8.34 2 8 C3.22520264 4.99152582 3.22520264 4.99152582 4 2 C4.33 2.66 4.66 3.32 5 4 C6.65 3.67 8.3 3.34 10 3 C10 3.66 10 4.32 10 5 C9.071875 5.12375 9.071875 5.12375 8.125 5.25 C5.81562433 5.81258459 5.81562433 5.81258459 4.75 8.0625 C4.5025 8.701875 4.255 9.34125 4 10 C5.0725 9.34 6.145 8.68 7.25 8 C10.30980686 6.11704193 11.1335864 6 15 6 C12 8 12 8 10 8 C9.67 8.99 9.34 9.98 9 11 C2.565 11.495 2.565 11.495 -4 12 C-3.37980769 3.44134615 -3.37980769 3.44134615 -1.45703125 1.20703125 C-0.97621094 0.80871094 -0.49539062 0.41039063 0 0 Z " fill="#F5F5F5" transform="translate(72,25)"/>
<path d="M0 0 C2.6875 -0.3125 2.6875 -0.3125 5 0 C5.33 0.99 5.66 1.98 6 3 C6.99 3.33 7.98 3.66 9 4 C7.625 6 7.625 6 5 8 C1.6419531 8.35791096 -1.63536357 8.23115823 -5 8 C-5 7.34 -5 6.68 -5 6 C-4.34 5.67 -3.68 5.34 -3 5 C-2.566875 4.154375 -2.13375 3.30875 -1.6875 2.4375 C-1.130625 1.633125 -0.57375 0.82875 0 0 Z " fill="#EFEFEF" transform="translate(19,52)"/>
<path d="M0 0 C1.20076172 0.31324219 1.20076172 0.31324219 2.42578125 0.6328125 C3.23402344 0.83648437 4.04226562 1.04015625 4.875 1.25 C5.48988281 1.41757812 6.10476562 1.58515625 6.73828125 1.7578125 C6.73828125 2.4178125 6.73828125 3.0778125 6.73828125 3.7578125 C4.77901062 5.4721743 2.77947913 7.14186418 0.73828125 8.7578125 C-1.69921875 8.0703125 -1.69921875 8.0703125 -4.26171875 6.7578125 C-5.07421875 4.1328125 -5.07421875 4.1328125 -5.26171875 1.7578125 C-2.26171875 -0.2421875 -2.26171875 -0.2421875 0 0 Z " fill="#EEEEEE" transform="translate(96.26171875,31.2421875)"/>
<path d="M0 0 C0.144375 0.639375 0.28875 1.27875 0.4375 1.9375 C0.81007181 3.97545146 0.81007181 3.97545146 2 5 C2.04080783 6.99958364 2.04254356 9.00045254 2 11 C-0.3125 12.125 -0.3125 12.125 -3 13 C-3.99 12.34 -4.98 11.68 -6 11 C-6.5625 8.1875 -6.5625 8.1875 -6 5 C-4.16311789 2.95014605 -2.27111274 1.60870486 0 0 Z " fill="#F7F7F7" transform="translate(70,1)"/>
<path d="M0 0 C1.23556641 0.01740234 1.23556641 0.01740234 2.49609375 0.03515625 C3.32238281 0.04417969 4.14867188 0.05320312 5 0.0625 C5.63808594 0.07410156 6.27617188 0.08570312 6.93359375 0.09765625 C5.79164946 2.89829057 4.60558143 5.57097838 2.93359375 8.09765625 C0.18359375 9.09765625 0.18359375 9.09765625 -2.06640625 9.09765625 C-3.05640625 7.77765625 -4.04640625 6.45765625 -5.06640625 5.09765625 C-2.6606399 0.12573913 -2.6606399 0.12573913 0 0 Z " fill="#F4F4F4" transform="translate(92.06640625,21.90234375)"/>
<path d="M0 0 C1.49297212 2.98594424 1.11755228 5.70853624 1 9 C0.67 9.66 0.34 10.32 0 11 C-2.31 11 -4.62 11 -7 11 C-7.625 8.6875 -7.625 8.6875 -8 6 C-5.68055212 2.52082818 -3.73630036 1.70570234 0 0 Z " fill="#F4F4F4" transform="translate(81,5)"/>
<path d="M0 0 C0.99 0 1.98 0 3 0 C3.33 0.66 3.66 1.32 4 2 C7.3 2 10.6 2 14 2 C14 1.34 14 0.68 14 0 C14.66 0 15.32 0 16 0 C16 1.32 16 2.64 16 4 C12.92177175 4.76955706 10.15115118 5.02702134 7 4.9375 C4.20209061 4.87964849 2.91840476 5.03337987 0.25 6.125 C-2 7 -2 7 -4.3125 6.125 C-4.869375 5.75375 -5.42625 5.3825 -6 5 C-5.01 4.67 -4.02 4.34 -3 4 C-3 3.34 -3 2.68 -3 2 C-3.66 1.67 -4.32 1.34 -5 1 C-3.02 1.495 -3.02 1.495 -1 2 C-0.67 1.34 -0.34 0.68 0 0 Z " fill="#080808" transform="translate(88,57)"/>
<path d="M0 0 C4.99275057 1.27721526 7.57611908 3.17330957 11 7 C10.34 7 9.68 7 9 7 C9 8.65 9 10.3 9 12 C8.34 12 7.68 12 7 12 C6.67 11.34 6.34 10.68 6 10 C5.195625 9.690625 4.39125 9.38125 3.5625 9.0625 C1 8 1 8 -1 5 C-0.625 2.3125 -0.625 2.3125 0 0 Z M3 3 C3.66 3.66 4.32 4.32 5 5 C5 4.34 5 3.68 5 3 C4.34 3 3.68 3 3 3 Z " fill="#7A7A7A" transform="translate(35,16)"/>
<path d="M0 0 C0.66 0 1.32 0 2 0 C2 1.32 2 2.64 2 4 C-0.5 5.75 -0.5 5.75 -3 7 C-2.67 8.65 -2.34 10.3 -2 12 C-2.66 12 -3.32 12 -4 12 C-4.20625 11.360625 -4.4125 10.72125 -4.625 10.0625 C-5.89229571 7.68231858 -5.89229571 7.68231858 -9 7.125 C-9.99 7.08375 -10.98 7.0425 -12 7 C-12.66 7.66 -13.32 8.32 -14 9 C-14.99 8.34 -15.98 7.68 -17 7 C-16.34 7 -15.68 7 -15 7 C-15 6.34 -15 5.68 -15 5 C-15.66 4.67 -16.32 4.34 -17 4 C-14.525 4.495 -14.525 4.495 -12 5 C-11.67 4.34 -11.34 3.68 -11 3 C-10.67 3.33 -10.34 3.66 -10 4 C-7.54190002 4.2500773 -7.54190002 4.2500773 -5 4 C-4.34 3.34 -3.68 2.68 -3 2 C-2.01 2 -1.02 2 0 2 C0 1.34 0 0.68 0 0 Z " fill="#020202" transform="translate(104,45)"/>
<path d="M0 0 C0.99 0.33 1.98 0.66 3 1 C3.061875 1.721875 3.12375 2.44375 3.1875 3.1875 C4.2410769 6.83449696 6.31771371 8.38649028 9 11 C9 11.99 9 12.98 9 14 C8.34 13.67 7.68 13.34 7 13 C6.67 14.98 6.34 16.96 6 19 C5.34 18.01 4.68 17.02 4 16 C3.34 16 2.68 16 2 16 C0.9673198 13.21176345 0.95490707 12.1322726 1.9375 9.25 C2.288125 8.5075 2.63875 7.765 3 7 C2.34 7 1.68 7 1 7 C0.67 4.69 0.34 2.38 0 0 Z " fill="#3B3B3B" transform="translate(51,5)"/>
<path d="M0 0 C2.64 0.33 5.28 0.66 8 1 C7.67 2.32 7.34 3.64 7 5 C4.77308629 5.25011345 2.54324878 5.47428352 0.3125 5.6875 C-0.92886719 5.81511719 -2.17023437 5.94273438 -3.44921875 6.07421875 C-7.29874446 5.99375562 -8.95371103 5.26578663 -12 3 C-10.0625 2.4375 -10.0625 2.4375 -8 2 C-7.67 2.33 -7.34 2.66 -7 3 C-4.54207971 3.33343551 -4.54207971 3.33343551 -2 3 C-1.34 2.01 -0.68 1.02 0 0 Z " fill="#5F5F5F" transform="translate(24,46)"/>
<path d="M0 0 C0.66 0.99 1.32 1.98 2 3 C1.67 3.66 1.34 4.32 1 5 C0.01 5 -0.98 5 -2 5 C-1.67 6.32 -1.34 7.64 -1 9 C-5.25566547 10.16063604 -8.6835078 9.76173392 -13 9 C-12.01 8.67 -11.02 8.34 -10 8 C-9.67 7.01 -9.34 6.02 -9 5 C-8.34 5 -7.68 5 -7 5 C-7 4.34 -7 3.68 -7 3 C-5.35 3 -3.7 3 -2 3 C-2 2.34 -2 1.68 -2 1 C-1.34 0.67 -0.68 0.34 0 0 Z " fill="#BFBFBF" transform="translate(91,45)"/>
<path d="M0 0 C1.21816406 0.03480469 1.21816406 0.03480469 2.4609375 0.0703125 C3.68683594 0.09738281 3.68683594 0.09738281 4.9375 0.125 C5.87722656 0.15980469 5.87722656 0.15980469 6.8359375 0.1953125 C4.8359375 3.1953125 4.8359375 3.1953125 3.8359375 4.1953125 C3.5059375 4.8553125 3.1759375 5.5153125 2.8359375 6.1953125 C2.1140625 5.9478125 1.3921875 5.7003125 0.6484375 5.4453125 C-2.3434973 4.87794181 -2.3434973 4.87794181 -4.9765625 7.1328125 C-5.6984375 7.8134375 -6.4203125 8.4940625 -7.1640625 9.1953125 C-8.1540625 8.5353125 -9.1440625 7.8753125 -10.1640625 7.1953125 C-9.5453125 7.1128125 -8.9265625 7.0303125 -8.2890625 6.9453125 C-6.00053621 6.39583167 -6.00053621 6.39583167 -5.0390625 4.2578125 C-4.7503125 3.5771875 -4.4615625 2.8965625 -4.1640625 2.1953125 C-2.1640625 0.1953125 -2.1640625 0.1953125 0 0 Z " fill="#868686" transform="translate(84.1640625,40.8046875)"/>
<path d="M0 0 C0.99 0 1.98 0 3 0 C3 0.66 3 1.32 3 2 C4.98 1.67 6.96 1.34 9 1 C10.60355101 4.50776784 11.22036864 7.14354879 11 11 C9.35 10.67 7.7 10.34 6 10 C6 9.01 6 8.02 6 7 C5.01 6.67 4.02 6.34 3 6 C3.66 5.67 4.32 5.34 5 5 C3.02 4.01 1.04 3.02 -1 2 C-0.67 1.34 -0.34 0.68 0 0 Z " fill="#C1C1C1" transform="translate(25,32)"/>
<path d="M0 0 C1.65 1.65 3.3 3.3 5 5 C4.01 5.495 4.01 5.495 3 6 C3.33 7.98 3.66 9.96 4 12 C2.68 11.34 1.36 10.68 0 10 C0.33 10.99 0.66 11.98 1 13 C0.01 13.99 -0.98 14.98 -2 16 C-2.66 15.67 -3.32 15.34 -4 15 C-2.9318153 9.88634986 -1.76892524 4.92772031 0 0 Z " fill="#7B7B7B" transform="translate(36,38)"/>
<path d="M0 0 C-0.556875 0.268125 -1.11375 0.53625 -1.6875 0.8125 C-6.12852263 2.99460732 -6.12852263 2.99460732 -10 6 C-11.85287502 6.07226502 -13.70833878 6.0838122 -15.5625 6.0625 C-16.57441406 6.05347656 -17.58632813 6.04445313 -18.62890625 6.03515625 C-19.41136719 6.02355469 -20.19382812 6.01195312 -21 6 C-21 5.34 -21 4.68 -21 4 C-20.07767578 3.94392578 -20.07767578 3.94392578 -19.13671875 3.88671875 C-18.32847656 3.82097656 -17.52023438 3.75523438 -16.6875 3.6875 C-15.88699219 3.62949219 -15.08648437 3.57148437 -14.26171875 3.51171875 C-11.59277637 2.90786477 -10.8147717 1.97744031 -9 0 C-5.52176885 -1.15941038 -3.54104422 -0.70820884 0 0 Z " fill="#010101" transform="translate(36,56)"/>
<path d="M0 0 C0 3.41099168 -0.49145406 6.63088314 -1 10 C-1.99 10 -2.98 10 -4 10 C-4 9.34 -4 8.68 -4 8 C-3.34 8 -2.68 8 -2 8 C-2 7.34 -2 6.68 -2 6 C-5.22404978 7.66954819 -5.22404978 7.66954819 -5.6875 10.625 C-5.790625 11.40875 -5.89375 12.1925 -6 13 C-6.33 13 -6.66 13 -7 13 C-7.48945148 5.65822785 -7.48945148 5.65822785 -5.1875 2.5625 C-3 1 -3 1 0 0 Z " fill="#393939" transform="translate(70,25)"/>
<path d="M0 0 C0.66 0.66 1.32 1.32 2 2 C2.99 2.33 3.98 2.66 5 3 C4.360625 3.495 3.72125 3.99 3.0625 4.5 C0.18484731 7.98806387 0.29769264 10.53461041 0 15 C-3 13 -3 13 -3.6875 10.375 C-3.790625 9.59125 -3.89375 8.8075 -4 8 C-3.34 8 -2.68 8 -2 8 C-2.226875 7.4225 -2.45375 6.845 -2.6875 6.25 C-3 4 -3 4 -1.5625 1.75 C-1.046875 1.1725 -0.53125 0.595 0 0 Z " fill="#F5F5F5" transform="translate(63,23)"/>
<path d="M0 0 C5.75 1.875 5.75 1.875 8 3 C8.33 3.99 8.66 4.98 9 6 C9.99 6.66 10.98 7.32 12 8 C11.67 9.98 11.34 11.96 11 14 C9.68 13.67 8.36 13.34 7 13 C5.89155081 9.67465243 6.15545644 7.37817425 7 4 C4.03 3.505 4.03 3.505 1 3 C0.67 2.01 0.34 1.02 0 0 Z " fill="#2B2B2B" transform="translate(36,6)"/>
<path d="M0 0 C1.2380014 3.57644848 0.74926071 6.33694766 0 10 C-1.11375 10.12375 -2.2275 10.2475 -3.375 10.375 C-7.03103677 10.6465813 -7.03103677 10.6465813 -9 13 C-9.66 12.01 -10.32 11.02 -11 10 C-11.66 9.34 -12.32 8.68 -13 8 C-10.03 8 -7.06 8 -4 8 C-3.71125 7.05125 -3.4225 6.1025 -3.125 5.125 C-2 2 -2 2 0 0 Z " fill="#0A0A0A" transform="translate(99,22)"/>
<path d="M0 0 C0.98120464 3.05263664 0.98120464 4.94736336 0 8 C-3.28696233 8.79953138 -4.71023192 9.09658936 -8 8 C-8.6875 5.9375 -8.6875 5.9375 -9 4 C-7.88625 3.896875 -6.7725 3.79375 -5.625 3.6875 C-4.42875 3.460625 -3.2325 3.23375 -2 3 C-1.34 2.01 -0.68 1.02 0 0 Z " fill="#9D9D9D" transform="translate(33,47)"/>
<path d="M0 0 C-0.33 0.66 -0.66 1.32 -1 2 C-1.969375 2.28875 -2.93875 2.5775 -3.9375 2.875 C-7.10056957 3.6889291 -7.10056957 3.6889291 -8.375 6.125 C-8.58125 6.74375 -8.7875 7.3625 -9 8 C-11.64 8 -14.28 8 -17 8 C-15.88625 7.13375 -15.88625 7.13375 -14.75 6.25 C-11.99881092 4.15624548 -11.99881092 4.15624548 -10.1875 1.75 C-6.85196864 -0.91842509 -4.1886939 -0.27924626 0 0 Z " fill="#010101" transform="translate(50,52)"/>
<path d="M0 0 C0.66 0 1.32 0 2 0 C2 4 2 4 -0.0625 6.6875 C-3.51359346 9.40431825 -5.68013429 9.68000995 -10 10 C-10.99 10.33 -11.98 10.66 -13 11 C-12.67 10.01 -12.34 9.02 -12 8 C-10.22265625 7.15625 -10.22265625 7.15625 -8.0625 6.5 C-4.58020975 5.43824907 -4.1577569 5.23663534 -2 2 C-1.34 2 -0.68 2 0 2 C0 1.34 0 0.68 0 0 Z " fill="#080808" transform="translate(103,33)"/>
<path d="M0 0 C3 1 3 1 4.75 3.75 C6.06883276 7.17896517 6.10867421 8.57318882 5 12 C4.01 12 3.02 12 2 12 C1.34 12.66 0.68 13.32 0 14 C-0.66 13.34 -1.32 12.68 -2 12 C-1.75 9.9375 -1.75 9.9375 -1 8 C-0.34 7.67 0.32 7.34 1 7 C1 7.66 1 8.32 1 9 C1.66 9.33 2.32 9.66 3 10 C2.67 7.69 2.34 5.38 2 3 C1.34 3 0.68 3 0 3 C0 2.01 0 1.02 0 0 Z " fill="#494949" transform="translate(64,12)"/>
<path d="M0 0 C1.9375 0.75 1.9375 0.75 4 2 C4.75 4.125 4.75 4.125 5 6 C5.66 6 6.32 6 7 6 C8.34882408 6.63474075 9.6846659 7.29848848 11 8 C9.20991533 8.22151549 7.41781838 8.42682213 5.625 8.625 C4.62726563 8.74101563 3.62953125 8.85703125 2.6015625 8.9765625 C1.74304688 8.98429687 0.88453125 8.99203125 0 9 C-0.66 8.34 -1.32 7.68 -2 7 C-1.01 6.67 -0.02 6.34 1 6 C1 5.34 1 4.68 1 4 C0.34 3.34 -0.32 2.68 -1 2 C-0.67 1.34 -0.34 0.68 0 0 Z " fill="#E6E6E6" transform="translate(82,33)"/>
<path d="M0 0 C0.66 0 1.32 0 2 0 C2.68201156 5.37084106 3.11521265 10.58500559 3 16 C2.34 15.34 1.68 14.68 1 14 C0.34 14.66 -0.32 15.32 -1 16 C-1.33 14.35 -1.66 12.7 -2 11 C-1.34 10.67 -0.68 10.34 0 10 C0 9.0925 0 8.185 0 7.25 C0 4.83333333 0 2.41666667 0 0 Z " fill="#040404" transform="translate(71,2)"/>
<path d="M0 0 C0 0.66 0 1.32 0 2 C-1.2375 2.6496875 -1.2375 2.6496875 -2.5 3.3125 C-3.7375 4.1478125 -3.7375 4.1478125 -5 5 C-5.4217343 7.88185107 -5.30138849 9.39722303 -4 12 C-5.32 11.34 -6.64 10.68 -8 10 C-8.36272727 3.59181818 -8.36272727 3.59181818 -6.8125 1.0625 C-4.43958382 -0.32851983 -2.70313576 -0.21917317 0 0 Z " fill="#030303" transform="translate(72,48)"/>
<path d="M0 0 C3.3125 -0.3125 3.3125 -0.3125 7 0 C8.9375 2.5 8.9375 2.5 10 5 C9.01 5.33 8.02 5.66 7 6 C6.67 5.67 6.34 5.34 6 5 C5.67 5.66 5.34 6.32 5 7 C4.34 7 3.68 7 3 7 C2.01 4.69 1.02 2.38 0 0 Z " fill="#5E5E5E" transform="translate(39,38)"/>
<path d="M0 0 C0.66 0 1.32 0 2 0 C5.11725712 3.95651865 5.45858437 7.04728879 5 12 C4.01 13.485 4.01 13.485 3 15 C2.01 14.67 1.02 14.34 0 14 C0.33 13.443125 0.66 12.88625 1 12.3125 C2.15249005 9.64736676 2.30274405 7.87606851 2 5 C1.34 4.34 0.68 3.68 0 3 C0 2.01 0 1.02 0 0 Z " fill="#161616" transform="translate(59,0)"/>
<path d="M0 0 C0.33 0 0.66 0 1 0 C2.44282367 8.1354395 2.44282367 8.1354395 0.6875 11.5625 C-1 13 -1 13 -3 13 C-3 13.66 -3 14.32 -3 15 C-3.66 15 -4.32 15 -5 15 C-5.33 13.68 -5.66 12.36 -6 11 C-4.68 10.67 -3.36 10.34 -2 10 C-1.855625 9.278125 -1.71125 8.55625 -1.5625 7.8125 C-1.04166667 5.20833333 -0.52083333 2.60416667 0 0 Z " fill="#020202" transform="translate(82,6)"/>
<path d="M0 0 C0.33 0 0.66 0 1 0 C3.11161731 9.41002278 3.11161731 9.41002278 4 14 C1.70589032 13.08235613 0.23101538 12.27301818 -1.375 10.375 C-2.36753261 6.60337608 -1.11003409 3.70011363 0 0 Z " fill="#4C4C4C" transform="translate(46,24)"/>
<path d="M0 0 C0.33 0.66 0.66 1.32 1 2 C1.66 2 2.32 2 3 2 C3.33 1.34 3.66 0.68 4 0 C5.125 7.625 5.125 7.625 4 11 C3.01 11.33 2.02 11.66 1 12 C1.06510417 10.01432292 1.13020833 8.02864583 1.1953125 6.04296875 C1.13254462 3.68640281 1.13254462 3.68640281 -1 1 C-0.67 0.67 -0.34 0.34 0 0 Z " fill="#F9F9F9" transform="translate(52,19)"/>
<path d="M0 0 C1.485 0.99 1.485 0.99 3 2 C4.99328026 2.12966108 4.99328026 2.12966108 7.0625 1.9375 C8.361875 1.958125 9.66125 1.97875 11 2 C11.99 3.485 11.99 3.485 13 5 C12.01 5.495 12.01 5.495 11 6 C10.67 5.67 10.34 5.34 10 5 C9.01 5.495 9.01 5.495 8 6 C8 5.34 8 4.68 8 4 C7.4225 4.226875 6.845 4.45375 6.25 4.6875 C4 5 4 5 1.75 3.6875 C1.1725 3.130625 0.595 2.57375 0 2 C0 1.34 0 0.68 0 0 Z " fill="#0B0B0B" transform="translate(20,28)"/>
<path d="M0 0 C0.99 0 1.98 0 3 0 C5.125 4.625 5.125 4.625 4 8 C3.01 7.34 2.02 6.68 1 6 C1.33 5.34 1.66 4.68 2 4 C1.01 4 0.02 4 -1 4 C-0.67 2.68 -0.34 1.36 0 0 Z " fill="#B7B7B7" transform="translate(63,15)"/>
<path d="M0 0 C-0.33 1.32 -0.66 2.64 -1 4 C-1.99 3.34 -2.98 2.68 -4 2 C-3.67 2.99 -3.34 3.98 -3 5 C-3.99 5.99 -4.98 6.98 -6 8 C-6.66 7.67 -7.32 7.34 -8 7 C-7.39816251 4.97954558 -6.72693904 2.97888961 -6 1 C-4 0 -4 0 0 0 Z " fill="#020202" transform="translate(40,46)"/>
<path d="M0 0 C0.12375 0.556875 0.2475 1.11375 0.375 1.6875 C0.95494637 4.09217019 0.95494637 4.09217019 2.1875 6.5625 C2.5896875 7.7690625 2.5896875 7.7690625 3 9 C2.01 10.485 2.01 10.485 1 12 C-1 10 -1 10 -1.23046875 7.87109375 C-1.20919922 6.66646484 -1.20919922 6.66646484 -1.1875 5.4375 C-1.18105469 4.63183594 -1.17460938 3.82617188 -1.16796875 2.99609375 C-1 1 -1 1 0 0 Z " fill="#0F0F0F" transform="translate(57,26)"/>
<path d="M0 0 C1.10336858 3.31010574 1.13531135 5.6813976 0 9 C-2.05078125 10.1484375 -2.05078125 10.1484375 -4 11 C-3.71758359 9.53984709 -3.42373386 8.08190207 -3.125 6.625 C-2.96257812 5.81289063 -2.80015625 5.00078125 -2.6328125 4.1640625 C-2 2 -2 2 0 0 Z " fill="#0A0A0A" transform="translate(92,13)"/>
<path d="M0 0 C1.65 0.33 3.3 0.66 5 1 C4.67 1.99 4.34 2.98 4 4 C2.02 4.33 0.04 4.66 -2 5 C-1.34 3.35 -0.68 1.7 0 0 Z " fill="#D7D7D7" transform="translate(30,59)"/>
<path d="M0 0 C0.66 0 1.32 0 2 0 C2 0.99 2 1.98 2 3 C3.32 3 4.64 3 6 3 C6 3.66 6 4.32 6 5 C4.68 4.67 3.36 4.34 2 4 C2 4.66 2 5.32 2 6 C2.66 6.33 3.32 6.66 4 7 C1.69 6.67 -0.62 6.34 -3 6 C-2.01 5.67 -1.02 5.34 0 5 C0 3.35 0 1.7 0 0 Z " fill="#4E4E4E" transform="translate(29,39)"/>
<path d="M0 0 C0 4 0 4 -1 7 C-1.99 7.33 -2.98 7.66 -4 8 C-4.93423645 4.98968256 -5.04449911 4.13349732 -4 1 C-2 0 -2 0 0 0 Z " fill="#939393" transform="translate(62,24)"/>
<path d="M0 0 C0.33 0.66 0.66 1.32 1 2 C1.99 2.33 2.98 2.66 4 3 C3.67 3.99 3.34 4.98 3 6 C2.67 5.67 2.34 5.34 2 5 C1.67 6.32 1.34 7.64 1 9 C0.34 9 -0.32 9 -1 9 C-1.125 2.25 -1.125 2.25 0 0 Z " fill="#595959" transform="translate(49,19)"/>
<path d="M0 0 C1.134375 0.020625 2.26875 0.04125 3.4375 0.0625 C1.625 2.5625 1.625 2.5625 -0.5625 5.0625 C-1.5525 5.0625 -2.5425 5.0625 -3.5625 5.0625 C-4.125 3.125 -4.125 3.125 -4.5625 1.0625 C-3.5625 0.0625 -3.5625 0.0625 0 0 Z " fill="#E0E0E0" transform="translate(36.5625,53.9375)"/>
<path d="M0 0 C0 2 0 2 -1.5 3.625 C-1.995 4.07875 -2.49 4.5325 -3 5 C-5.475 4.01 -5.475 4.01 -8 3 C-5.53387212 -0.1151089 -3.89156016 -0.31553191 0 0 Z " fill="#151515" transform="translate(84,48)"/>
<path d="M0 0 C0.66 0.33 1.32 0.66 2 1 C1.43545368 2.48643845 0.84765111 3.96406016 0.25 5.4375 C-0.07484375 6.26121094 -0.3996875 7.08492187 -0.734375 7.93359375 C-2 10 -2 10 -4.140625 10.78515625 C-4.75421875 10.85605469 -5.3678125 10.92695312 -6 11 C-6 10.01 -6 9.02 -6 8 C-5.01 7.34 -4.02 6.68 -3 6 C-1.93753473 4.03247172 -0.92862192 2.03412421 0 0 Z " fill="#1B1B1B" transform="translate(77,23)"/>
<path d="M0 0 C0.99 0.33 1.98 0.66 3 1 C3 2.65 3 4.3 3 6 C1.35 5.67 -0.3 5.34 -2 5 C-2 4.01 -2 3.02 -2 2 C-2.99 1.67 -3.98 1.34 -5 1 C-2.03 1.495 -2.03 1.495 1 2 C0.67 1.34 0.34 0.68 0 0 Z " fill="#F1F1F1" transform="translate(33,37)"/>
<path d="M0 0 C3.3 1.98 6.6 3.96 10 6 C9.67 6.66 9.34 7.32 9 8 C7.35 7.67 5.7 7.34 4 7 C4 6.34 4 5.68 4 5 C3.34 5 2.68 5 2 5 C1.34 3.35 0.68 1.7 0 0 Z " fill="#0E0E0E" transform="translate(32,23)"/>
<path d="M0 0 C-0.33 0.99 -0.66 1.98 -1 3 C-3.97 3 -6.94 3 -10 3 C-6.68152292 -0.06320961 -4.44849969 -0.3033068 0 0 Z " fill="#090909" transform="translate(47,64)"/>
<path d="M0 0 C0.66 0.99 1.32 1.98 2 3 C1.67 3.66 1.34 4.32 1 5 C-1.64 5 -4.28 5 -7 5 C-7 4.34 -7 3.68 -7 3 C-5.35 3 -3.7 3 -2 3 C-2 2.34 -2 1.68 -2 1 C-1.34 0.67 -0.68 0.34 0 0 Z " fill="#AEAEAE" transform="translate(91,45)"/>
<path d="M0 0 C2.97 0.495 2.97 0.495 6 1 C5.67 2.32 5.34 3.64 5 5 C3.68 5 2.36 5 1 5 C0.67 3.35 0.34 1.7 0 0 Z " fill="#8B8B8B" transform="translate(37,29)"/>
<path d="M0 0 C2.02045442 0.60183749 4.02111039 1.27306096 6 2 C6.33 2.66 6.66 3.32 7 4 C5.02 4 3.04 4 1 4 C0.67 4.99 0.34 5.98 0 7 C-1.33332095 4.3333581 -0.67102033 2.83319697 0 0 Z " fill="#070707" transform="translate(35,16)"/>
<path d="M0 0 C0.99 0 1.98 0 3 0 C4.35439668 2.70879335 4.06501451 5.00933268 4 8 C3.01 8 2.02 8 1 8 C1.33 7.01 1.66 6.02 2 5 C0.62831762 2.80961577 0.62831762 2.80961577 -1 1 C-0.67 0.67 -0.34 0.34 0 0 Z " fill="#010101" transform="translate(84,32)"/>
<path d="M0 0 C1.65 0.33 3.3 0.66 5 1 C4.54625 1.433125 4.0925 1.86625 3.625 2.3125 C1.79975666 4.10798342 1.79975666 4.10798342 0 7 C-0.66 6.67 -1.32 6.34 -2 6 C-1.34 4.02 -0.68 2.04 0 0 Z " fill="#020202" transform="translate(80,22)"/>
<path d="M0 0 C2.125 0.9375 2.125 0.9375 4 2 C3.360625 2.61875 2.72125 3.2375 2.0625 3.875 C-0.03883584 5.82597612 -0.03883584 5.82597612 -1 8 C-0.34 8.33 0.32 8.66 1 9 C0.01 9 -0.98 9 -2 9 C-1.814375 8.05125 -1.62875 7.1025 -1.4375 6.125 C-0.71313368 3.10131207 -0.71313368 3.10131207 -2 1 C-1.34 0.67 -0.68 0.34 0 0 Z " fill="#D1D1D1" transform="translate(79,20)"/>
<path d="M0 0 C0.53625 0.37125 1.0725 0.7425 1.625 1.125 C1.625 1.455 1.625 1.785 1.625 2.125 C-2.83 2.62 -2.83 2.62 -7.375 3.125 C-7.705 2.465 -8.035 1.805 -8.375 1.125 C-2.95961538 -1.09038462 -2.95961538 -1.09038462 0 0 Z " fill="#212121" transform="translate(36.375,62.875)"/>
<path d="M0 0 C0 0.99 0 1.98 0 3 C-0.66 3 -1.32 3 -2 3 C-2 3.66 -2 4.32 -2 5 C-3.65 5 -5.3 5 -7 5 C-7 4.34 -7 3.68 -7 3 C-2.61538462 0 -2.61538462 0 0 0 Z " fill="#F8F8F8" transform="translate(74,58)"/>
<path d="M0 0 C2.475 0.99 2.475 0.99 5 2 C3.68 2.99 2.36 3.98 1 5 C-0.32 4.34 -1.64 3.68 -3 3 C-2.01 2.67 -1.02 2.34 0 2 C0 1.34 0 0.68 0 0 Z " fill="#060606" transform="translate(78,58)"/>
<path d="M0 0 C1.98 0 3.96 0 6 0 C4.02 0.99 4.02 0.99 2 2 C2.33 2.66 2.66 3.32 3 4 C0.69 4 -1.62 4 -4 4 C-3.01 3.67 -2.02 3.34 -1 3 C-0.67 2.01 -0.34 1.02 0 0 Z " fill="#F9F9F9" transform="translate(82,50)"/>
<path d="M0 0 C-2.76223278 2.76223278 -5.20706617 2.57856291 -9 3 C-9 2.34 -9 1.68 -9 1 C-6.04335481 -0.4783226 -3.25770263 -0.06032783 0 0 Z " fill="#0C0C0C" transform="translate(78,41)"/>
<path d="M0 0 C0.99 0 1.98 0 3 0 C3 0.66 3 1.32 3 2 C3.99 1.67 4.98 1.34 6 1 C6.33 1.99 6.66 2.98 7 4 C1.25 3.25 1.25 3.25 -1 1 C-0.67 0.67 -0.34 0.34 0 0 Z " fill="#D6D6D6" transform="translate(25,32)"/>
<path d="M0 0 C1.32 0.66 2.64 1.32 4 2 C3.01 2.33 2.02 2.66 1 3 C1 3.66 1 4.32 1 5 C0.01 5 -0.98 5 -2 5 C-1.34 3.35 -0.68 1.7 0 0 Z " fill="#0F0F0F" transform="translate(78,30)"/>
<path d="M0 0 C4.8 3.44615385 4.8 3.44615385 5.8125 6.25 C5.874375 6.8275 5.93625 7.405 6 8 C5.01 8 4.02 8 3 8 C1.92474806 5.34771188 0.90543849 2.71631546 0 0 Z " fill="#080808" transform="translate(26,20)"/>
<path d="M0 0 C2.475 0.495 2.475 0.495 5 1 C5 2.98 5 4.96 5 7 C4.34 6.01 3.68 5.02 3 4 C2.34 4 1.68 4 1 4 C0.67 2.68 0.34 1.36 0 0 Z " fill="#505050" transform="translate(52,17)"/>
<path d="M0 0 C2.475 0.495 2.475 0.495 5 1 C5 2.32 5 3.64 5 5 C3.68 4.67 2.36 4.34 1 4 C0.67 2.68 0.34 1.36 0 0 Z " fill="#818181" transform="translate(42,15)"/>
<path d="M0 0 C0.66 0 1.32 0 2 0 C2.33 2.31 2.66 4.62 3 7 C2.01 7.495 2.01 7.495 1 8 C0.34 5.69 -0.32 3.38 -1 1 C-0.67 0.67 -0.34 0.34 0 0 Z " fill="#131313" transform="translate(71,2)"/>
</svg>
